<svg width="50" height="50" viewBox="0 0 50 50" fill="none" xmlns="http://www.w3.org/2000/svg">
<circle cx="25" cy="25" r="24.5" fill="#D9D9D9" stroke="#303030"/>
<g clip-path="url(#clip0_20531_3100)">
<path d="M27.1248 35.1004L18.6998 26.7004C18.5998 26.6004 18.5291 26.4921 18.4878 26.3754C18.4458 26.2587 18.4248 26.1337 18.4248 26.0004C18.4248 25.8671 18.4458 25.7421 18.4878 25.6254C18.5291 25.5087 18.5998 25.4004 18.6998 25.3004L27.1248 16.8754C27.3581 16.6421 27.6498 16.5254 27.9998 16.5254C28.3498 16.5254 28.6498 16.6504 28.8998 16.9004C29.1498 17.1504 29.2748 17.4421 29.2748 17.7754C29.2748 18.1087 29.1498 18.4004 28.8998 18.6504L21.5498 26.0004L28.8998 33.3504C29.1331 33.5837 29.2498 33.8711 29.2498 34.2124C29.2498 34.5544 29.1248 34.8504 28.8748 35.1004C28.6248 35.3504 28.3331 35.4754 27.9998 35.4754C27.6665 35.4754 27.3748 35.3504 27.1248 35.1004Z" fill="#303030"/>
</g>
<defs>
<clipPath id="clip0_20531_3100">
<rect width="11" height="24" fill="white" transform="translate(18 14)"/>
</clipPath>
</defs>
</svg>
