<svg width="50" height="50" viewBox="0 0 50 50" fill="none" xmlns="http://www.w3.org/2000/svg">
<circle cx="25" cy="25" r="24.5" fill="#D9D9D9" stroke="#303030"/>
<g clip-path="url(#clip0_20531_3088)">
<path d="M22.8752 35.1004L31.3002 26.7004C31.4002 26.6004 31.4709 26.4921 31.5122 26.3754C31.5542 26.2587 31.5752 26.1337 31.5752 26.0004C31.5752 25.8671 31.5542 25.7421 31.5122 25.6254C31.4709 25.5087 31.4002 25.4004 31.3002 25.3004L22.8752 16.8754C22.6419 16.6421 22.3502 16.5254 22.0002 16.5254C21.6502 16.5254 21.3502 16.6504 21.1002 16.9004C20.8502 17.1504 20.7252 17.4421 20.7252 17.7754C20.7252 18.1087 20.8502 18.4004 21.1002 18.6504L28.4502 26.0004L21.1002 33.3504C20.8669 33.5837 20.7502 33.8711 20.7502 34.2124C20.7502 34.5544 20.8752 34.8504 21.1252 35.1004C21.3752 35.3504 21.6669 35.4754 22.0002 35.4754C22.3335 35.4754 22.6252 35.3504 22.8752 35.1004Z" fill="#303030"/>
</g>
<defs>
<clipPath id="clip0_20531_3088">
<rect width="11" height="24" fill="white" transform="matrix(-1 0 0 1 32 14)"/>
</clipPath>
</defs>
</svg>
