<svg width="50" height="50" viewBox="0 0 50 50" fill="none" xmlns="http://www.w3.org/2000/svg">
<circle cx="25" cy="25" r="24.5" fill="#D9D9D9" stroke="#303030"/>
<path d="M12.28 32V18H17.52C18.7067 18 19.7267 18.1933 20.58 18.58C21.4333 18.9533 22.0867 19.5 22.54 20.22C23.0067 20.9267 23.24 21.7867 23.24 22.8C23.24 23.7867 23.0067 24.64 22.54 25.36C22.0867 26.0667 21.4333 26.6133 20.58 27C19.7267 27.3733 18.7067 27.56 17.52 27.56H13.1L13.76 26.88V32H12.28ZM21.84 32L18.24 26.92H19.84L23.46 32H21.84ZM13.76 27L13.1 26.3H17.48C18.88 26.3 19.94 25.9933 20.66 25.38C21.3933 24.7667 21.76 23.9067 21.76 22.8C21.76 21.68 21.3933 20.8133 20.66 20.2C19.94 19.5867 18.88 19.28 17.48 19.28H13.1L13.76 18.58V27ZM32.3731 32.12C30.5865 32.12 29.1798 31.6067 28.1531 30.58C27.1265 29.5533 26.6131 28.0333 26.6131 26.02V18H28.0931V25.96C28.0931 27.6133 28.4665 28.8333 29.2131 29.62C29.9598 30.4067 31.0131 30.8 32.3731 30.8C33.7465 30.8 34.8065 30.4067 35.5531 29.62C36.2998 28.8333 36.6731 27.6133 36.6731 25.96V18H38.1131V26.02C38.1131 28.0333 37.5998 29.5533 36.5731 30.58C35.5598 31.6067 34.1598 32.12 32.3731 32.12Z" fill="#303030"/>
</svg>
